<svg xmlns="http://www.w3.org/2000/svg" xmlns:xlink="http://www.w3.org/1999/xlink" width="500" zoomAndPan="magnify" viewBox="0 0 375 374.999991" height="500" preserveAspectRatio="xMidYMid meet" version="1.0"><defs><g/><clipPath id="ec463d9a71"><path d="M 330.152344 205.734375 L 343.386719 205.734375 L 343.386719 218.972656 L 330.152344 218.972656 Z M 330.152344 205.734375 " clip-rule="nonzero"/></clipPath><clipPath id="3b91a7bf30"><path d="M 336.769531 205.734375 C 333.113281 205.734375 330.152344 208.699219 330.152344 212.351562 C 330.152344 216.007812 333.113281 218.972656 336.769531 218.972656 C 340.425781 218.972656 343.386719 216.007812 343.386719 212.351562 C 343.386719 208.699219 340.425781 205.734375 336.769531 205.734375 Z M 336.769531 205.734375 " clip-rule="nonzero"/></clipPath></defs><rect x="-37.5" width="450" fill="#ffffff" y="-37.499999" height="449.999989" fill-opacity="1"/><rect x="-37.5" width="450" fill="#fffdf0" y="-37.499999" height="449.999989" fill-opacity="1"/><g clip-path="url(#ec463d9a71)"><g clip-path="url(#3b91a7bf30)"><path fill="#2b2b2b" d="M 330.152344 205.734375 L 343.386719 205.734375 L 343.386719 218.972656 L 330.152344 218.972656 Z M 330.152344 205.734375 " fill-opacity="1" fill-rule="nonzero"/></g></g><g fill="#55996f" fill-opacity="1"><g transform="translate(45.022787, 180.515614)"><g><path d="M 35.582031 0 C 35.699219 0 35.820312 -0.175781 35.761719 -0.351562 C 35.40625 -1.589844 33.640625 -11.546875 33.402344 -13.078125 C 32.875 -16.261719 32.460938 -19.382812 31.871094 -22.503906 C 31.28125 -25.6875 29.75 -35.113281 29.457031 -36.820312 C 29.398438 -36.9375 29.339844 -36.996094 29.21875 -36.996094 L 7.777344 -36.996094 C 7.660156 -36.996094 7.601562 -36.9375 7.601562 -36.761719 C 7.480469 -35.699219 4.714844 -17.96875 4.066406 -14.90625 C 3.417969 -11.839844 1.53125 -2.769531 1.296875 -1.355469 C 1.238281 -1 1.179688 -0.648438 1.121094 -0.351562 C 1.058594 -0.175781 1.179688 0 1.296875 0 L 13.195312 0 C 13.253906 0 13.375 -0.117188 13.375 -0.234375 C 13.433594 -4.476562 16.496094 -19.085938 17.027344 -23.445312 C 17.085938 -24.09375 17.496094 -25.6875 18.617188 -25.625 C 19.382812 -25.566406 19.734375 -24.273438 19.851562 -22.5625 C 19.914062 -20.324219 21.207031 -12.195312 21.265625 -11.371094 C 21.328125 -10.664062 20.324219 -10.367188 20.324219 -10.367188 C 19.972656 -10.308594 17.851562 -10.308594 17.554688 -10.367188 C 17.4375 -10.367188 17.085938 -10.308594 17.085938 -10.191406 C 16.847656 -7.953125 16.199219 -2.472656 16.140625 -0.234375 C 16.140625 -0.117188 16.199219 0 16.320312 0 Z M 35.582031 0 "/></g></g></g><g fill="#55996f" fill-opacity="1"><g transform="translate(80.545354, 180.515614)"><g><path d="M 34.757812 -16.789062 C 34.757812 -23.445312 34.875 -30.046875 34.875 -36.703125 C 34.875 -36.761719 34.875 -36.820312 34.875 -36.878906 C 34.875 -36.9375 34.816406 -36.996094 34.757812 -36.996094 L 20.855469 -36.996094 C 20.796875 -36.996094 20.738281 -36.9375 20.738281 -36.878906 C 20.738281 -34.285156 20.855469 -29.632812 20.621094 -27.160156 C 20.558594 -26.6875 20.382812 -26.214844 19.972656 -26.097656 C 19.617188 -25.980469 19.207031 -26.15625 19.027344 -26.628906 C 18.027344 -29.21875 17.378906 -34.167969 16.554688 -36.9375 C 16.554688 -36.996094 16.496094 -36.996094 16.4375 -36.996094 L 1.707031 -37.054688 C 1.648438 -37.054688 1.589844 -36.996094 1.589844 -36.878906 C 1.589844 -36.878906 1.765625 -25.097656 1.707031 -19.558594 C 1.707031 -13.078125 1.53125 -6.65625 1.53125 -0.175781 C 1.53125 -0.0585938 1.53125 0 1.648438 0 L 15.140625 0 C 15.199219 0 15.257812 -0.0585938 15.257812 -0.117188 C 15.257812 -2.652344 15.023438 -6.246094 15.140625 -8.71875 C 15.199219 -9.71875 16.140625 -10.367188 16.613281 -9.542969 C 17.4375 -7.953125 17.734375 -4.890625 18.378906 -2.945312 C 18.734375 -2.003906 19.027344 -1.058594 19.265625 -0.0585938 C 19.324219 0 19.324219 0 19.382812 0 L 34.582031 0 C 34.640625 0 34.699219 -0.0585938 34.699219 -0.117188 C 34.640625 -0.941406 34.757812 -12.078125 34.757812 -16.789062 Z M 34.757812 -16.789062 "/></g></g></g><g fill="#55996f" fill-opacity="1"><g transform="translate(115.655545, 180.515614)"><g><path d="M 34.464844 -17.261719 C 34.464844 -18.617188 34.285156 -22.445312 34.050781 -23.800781 C 33.816406 -25.039062 32.8125 -30.457031 29.101562 -33.519531 C 25.566406 -36.347656 22.5625 -36.996094 18.203125 -36.996094 C 13.84375 -36.996094 18.144531 -36.996094 18.144531 -36.996094 L 2.121094 -36.996094 C 1.828125 -36.996094 1.589844 -36.820312 1.589844 -36.527344 C 1.53125 -35.878906 1.53125 -35.289062 1.53125 -34.640625 L 1.53125 -24.449219 C 1.589844 -21.03125 1.765625 -17.554688 1.886719 -14.082031 C 1.945312 -10.957031 1.945312 -1.886719 1.765625 -0.53125 C 1.707031 -0.234375 1.945312 0 2.238281 0 C 2.238281 0 14.082031 0 14.140625 0 C 15.257812 -0.0585938 18.617188 -0.0585938 19.734375 -0.117188 C 20.679688 -0.175781 23.386719 -0.589844 25.863281 -1.648438 C 27.925781 -2.472656 30.339844 -4.300781 31.164062 -5.300781 C 32.933594 -7.421875 33.757812 -10.015625 33.757812 -10.015625 C 34.226562 -11.488281 34.464844 -14.726562 34.464844 -17.261719 Z M 19.207031 -14.964844 C 18.792969 -12.960938 18.441406 -12.371094 17.320312 -12.371094 C 16.320312 -12.371094 16.320312 -13.550781 16.320312 -15.023438 L 16.320312 -22.269531 C 16.320312 -24.152344 16.613281 -24.507812 17.320312 -24.507812 C 18.027344 -24.507812 18.910156 -23.976562 19.207031 -21.265625 C 19.382812 -19.792969 19.441406 -16.199219 19.207031 -14.964844 Z M 19.207031 -14.964844 "/></g></g></g><g fill="#55996f" fill-opacity="1"><g transform="translate(150.176634, 180.515614)"><g><path d="M 31.339844 -11.253906 C 30.988281 -12.019531 30.753906 -12.667969 31.339844 -13.195312 C 31.339844 -13.195312 31.339844 -13.253906 31.398438 -13.253906 C 31.460938 -13.375 33.050781 -15.613281 33.640625 -17.027344 C 34.226562 -18.441406 34.640625 -21.621094 34.640625 -23.800781 C 34.640625 -26.921875 34.582031 -29.21875 33.519531 -31.519531 C 33.167969 -32.34375 32.285156 -34.050781 30.871094 -35.230469 C 29.691406 -36.289062 28.21875 -37.054688 26.863281 -37.054688 L 1.886719 -37.054688 C 1.707031 -37.054688 1.707031 -36.878906 1.707031 -36.703125 C 1.828125 -32.933594 1.707031 -28.925781 1.648438 -25.15625 L 1.648438 -17.851562 C 1.707031 -16.96875 1.648438 -6.480469 1.648438 -5.480469 L 1.648438 -0.53125 C 1.648438 -0.234375 1.765625 0 2.003906 0 L 15.789062 0 C 15.964844 0 16.140625 -0.234375 16.140625 -0.53125 C 16.023438 -3.0625 16.082031 -5.773438 16.261719 -8.246094 C 16.261719 -8.835938 17.144531 -9.074219 17.4375 -8.71875 C 18.261719 -7.777344 20.5 -1.53125 20.796875 -0.292969 C 20.855469 -0.117188 20.972656 0 21.148438 0 L 34.285156 0 C 34.523438 0 34.699219 -0.292969 34.640625 -0.648438 C 34.40625 -1.707031 32.753906 -8.308594 31.339844 -11.253906 Z M 18.734375 -21.386719 C 18.617188 -19.558594 17.734375 -18.851562 16.90625 -18.910156 C 16.023438 -18.96875 16.023438 -19.851562 15.964844 -20.382812 C 15.90625 -21.796875 15.964844 -24.214844 15.964844 -25.507812 C 15.964844 -26.214844 15.964844 -26.921875 15.964844 -27.394531 C 16.023438 -27.746094 16.4375 -28.101562 16.90625 -28.101562 C 17.671875 -28.101562 18.441406 -27.6875 18.675781 -25.625 C 18.792969 -24.332031 18.851562 -23.035156 18.734375 -21.386719 Z M 18.734375 -21.386719 "/></g></g></g><g fill="#55996f" fill-opacity="1"><g transform="translate(184.874454, 180.515614)"><g><path d="M 34.285156 -9.71875 C 34.285156 -10.015625 34.050781 -10.25 33.816406 -10.25 C 30.753906 -10.132812 20.972656 -9.601562 19.441406 -9.957031 C 18.203125 -10.25 16.789062 -11.3125 17.554688 -12.785156 C 18.261719 -14.140625 20.558594 -13.902344 21.796875 -13.960938 C 23.152344 -14.082031 31.046875 -13.726562 33.816406 -13.726562 C 34.050781 -13.726562 34.285156 -13.960938 34.285156 -14.199219 C 34.285156 -14.964844 34.285156 -15.492188 34.285156 -16.320312 L 34.285156 -21.207031 C 34.285156 -21.503906 34.050781 -21.738281 33.816406 -21.738281 C 32.992188 -21.738281 19.207031 -21.5625 18.320312 -21.855469 C 17.554688 -22.09375 16.847656 -22.738281 16.90625 -23.625 C 17.027344 -25.039062 18.558594 -25.449219 19.734375 -25.566406 C 22.738281 -26.039062 33.816406 -25.746094 33.816406 -25.746094 C 34.109375 -25.746094 34.285156 -25.980469 34.285156 -26.273438 C 34.285156 -26.273438 33.992188 -28.691406 34.050781 -29.867188 C 34.050781 -31.046875 34.167969 -34.582031 34.226562 -35.171875 C 34.285156 -35.820312 34.347656 -36.585938 34.347656 -36.644531 C 34.285156 -36.878906 34.050781 -36.996094 33.875 -36.996094 L 2.472656 -36.996094 C 2.003906 -36.996094 1.648438 -36.585938 1.707031 -36.113281 C 2.535156 -30.28125 1.828125 -24.390625 1.765625 -18.558594 C 1.707031 -12.605469 1.707031 -6.714844 1.472656 -0.765625 C 1.414062 -0.351562 1.765625 0 2.238281 0 L 34.050781 0 C 34.347656 0 34.523438 -0.175781 34.523438 -0.472656 C 34.523438 -0.472656 34.285156 -5.359375 34.285156 -6.480469 C 34.285156 -7.421875 34.285156 -8.71875 34.285156 -9.71875 Z M 34.285156 -9.71875 "/></g></g></g><g fill="#55996f" fill-opacity="1"><g transform="translate(219.572274, 180.515614)"><g><path d="M 27.335938 -36.996094 C 27.101562 -36.996094 26.921875 -36.820312 26.921875 -36.585938 C 26.6875 -34.933594 26.628906 -33.226562 26.394531 -31.519531 C 26.15625 -30.046875 26.332031 -29.457031 25.625 -26.980469 C 25.273438 -25.863281 23.800781 -25.980469 23.625 -26.804688 C 22.917969 -29.988281 22.800781 -33.285156 22.679688 -36.527344 C 22.679688 -36.820312 22.503906 -36.996094 22.269531 -36.996094 L 18.203125 -36.996094 C 17.96875 -36.996094 17.792969 -36.820312 17.792969 -36.585938 C 17.496094 -33.402344 17.203125 -30.222656 16.554688 -27.101562 C 16.320312 -26.097656 14.90625 -25.980469 14.785156 -27.101562 C 14.375 -30.222656 13.84375 -33.402344 13.667969 -36.527344 C 13.667969 -36.820312 13.492188 -36.996094 13.253906 -36.996094 L 1.589844 -36.996094 C 1.355469 -36.996094 1.179688 -36.761719 1.179688 -36.527344 L 1.179688 -36.40625 C 1.179688 -36.347656 1.179688 -36.289062 1.179688 -36.289062 C 1.828125 -32.402344 2.003906 -28.394531 2.355469 -24.449219 C 2.652344 -21.089844 3.0625 -17.792969 3.300781 -14.433594 C 3.59375 -11.429688 3.886719 -8.425781 4.242188 -5.421875 C 4.476562 -3.710938 4.714844 -2.003906 5.066406 -0.351562 C 5.125 -0.117188 5.300781 0.0585938 5.480469 0.0585938 L 17.910156 0.0585938 C 18.085938 0.0585938 18.261719 -0.117188 18.320312 -0.414062 C 18.5 -1.886719 18.5 -1.589844 18.734375 -3.121094 C 19.027344 -5.242188 18.96875 -7.539062 19.734375 -9.542969 C 20.089844 -10.605469 21.445312 -9.957031 21.445312 -8.953125 C 21.503906 -5.421875 21.738281 -3.710938 22.328125 -0.351562 C 22.386719 -0.117188 22.5625 0.0585938 22.738281 0.0585938 L 34.816406 0.0585938 C 35.054688 0.0585938 35.230469 -0.175781 35.230469 -0.414062 C 35.40625 -1.589844 35.464844 -2.710938 35.640625 -3.886719 C 35.820312 -5.597656 35.820312 -8.367188 36.054688 -10.015625 C 36.289062 -11.664062 36.46875 -13.960938 37.171875 -20.796875 C 37.761719 -26.746094 37.820312 -30.515625 38.882812 -36.40625 C 38.941406 -36.703125 38.765625 -36.996094 38.46875 -36.996094 Z M 27.335938 -36.996094 "/></g></g></g><g fill="#2b2b2b" fill-opacity="1"><g transform="translate(45.022787, 180.515614)"><g><path d="M 35.582031 0 C 35.699219 0 35.820312 -0.175781 35.761719 -0.351562 C 35.40625 -1.589844 33.640625 -11.546875 33.402344 -13.078125 C 32.875 -16.261719 32.460938 -19.382812 31.871094 -22.503906 C 31.28125 -25.6875 29.75 -35.113281 29.457031 -36.820312 C 29.398438 -36.9375 29.339844 -36.996094 29.21875 -36.996094 L 7.777344 -36.996094 C 7.660156 -36.996094 7.601562 -36.9375 7.601562 -36.761719 C 7.480469 -35.699219 4.714844 -17.96875 4.066406 -14.90625 C 3.417969 -11.839844 1.53125 -2.769531 1.296875 -1.355469 C 1.238281 -1 1.179688 -0.648438 1.121094 -0.351562 C 1.058594 -0.175781 1.179688 0 1.296875 0 L 13.195312 0 C 13.253906 0 13.375 -0.117188 13.375 -0.234375 C 13.433594 -4.476562 16.496094 -19.085938 17.027344 -23.445312 C 17.085938 -24.09375 17.496094 -25.6875 18.617188 -25.625 C 19.382812 -25.566406 19.734375 -24.273438 19.851562 -22.5625 C 19.914062 -20.324219 21.207031 -12.195312 21.265625 -11.371094 C 21.328125 -10.664062 20.324219 -10.367188 20.324219 -10.367188 C 19.972656 -10.308594 17.851562 -10.308594 17.554688 -10.367188 C 17.4375 -10.367188 17.085938 -10.308594 17.085938 -10.191406 C 16.847656 -7.953125 16.199219 -2.472656 16.140625 -0.234375 C 16.140625 -0.117188 16.199219 0 16.320312 0 Z M 35.582031 0 "/></g></g></g><g fill="#2b2b2b" fill-opacity="1"><g transform="translate(80.545354, 180.515614)"><g><path d="M 34.757812 -16.789062 C 34.757812 -23.445312 34.875 -30.046875 34.875 -36.703125 C 34.875 -36.761719 34.875 -36.820312 34.875 -36.878906 C 34.875 -36.9375 34.816406 -36.996094 34.757812 -36.996094 L 20.855469 -36.996094 C 20.796875 -36.996094 20.738281 -36.9375 20.738281 -36.878906 C 20.738281 -34.285156 20.855469 -29.632812 20.621094 -27.160156 C 20.558594 -26.6875 20.382812 -26.214844 19.972656 -26.097656 C 19.617188 -25.980469 19.207031 -26.15625 19.027344 -26.628906 C 18.027344 -29.21875 17.378906 -34.167969 16.554688 -36.9375 C 16.554688 -36.996094 16.496094 -36.996094 16.4375 -36.996094 L 1.707031 -37.054688 C 1.648438 -37.054688 1.589844 -36.996094 1.589844 -36.878906 C 1.589844 -36.878906 1.765625 -25.097656 1.707031 -19.558594 C 1.707031 -13.078125 1.53125 -6.65625 1.53125 -0.175781 C 1.53125 -0.0585938 1.53125 0 1.648438 0 L 15.140625 0 C 15.199219 0 15.257812 -0.0585938 15.257812 -0.117188 C 15.257812 -2.652344 15.023438 -6.246094 15.140625 -8.71875 C 15.199219 -9.71875 16.140625 -10.367188 16.613281 -9.542969 C 17.4375 -7.953125 17.734375 -4.890625 18.378906 -2.945312 C 18.734375 -2.003906 19.027344 -1.058594 19.265625 -0.0585938 C 19.324219 0 19.324219 0 19.382812 0 L 34.582031 0 C 34.640625 0 34.699219 -0.0585938 34.699219 -0.117188 C 34.640625 -0.941406 34.757812 -12.078125 34.757812 -16.789062 Z M 34.757812 -16.789062 "/></g></g></g><g fill="#2b2b2b" fill-opacity="1"><g transform="translate(115.655545, 180.515614)"><g><path d="M 34.464844 -17.261719 C 34.464844 -18.617188 34.285156 -22.445312 34.050781 -23.800781 C 33.816406 -25.039062 32.8125 -30.457031 29.101562 -33.519531 C 25.566406 -36.347656 22.5625 -36.996094 18.203125 -36.996094 C 13.84375 -36.996094 18.144531 -36.996094 18.144531 -36.996094 L 2.121094 -36.996094 C 1.828125 -36.996094 1.589844 -36.820312 1.589844 -36.527344 C 1.53125 -35.878906 1.53125 -35.289062 1.53125 -34.640625 L 1.53125 -24.449219 C 1.589844 -21.03125 1.765625 -17.554688 1.886719 -14.082031 C 1.945312 -10.957031 1.945312 -1.886719 1.765625 -0.53125 C 1.707031 -0.234375 1.945312 0 2.238281 0 C 2.238281 0 14.082031 0 14.140625 0 C 15.257812 -0.0585938 18.617188 -0.0585938 19.734375 -0.117188 C 20.679688 -0.175781 23.386719 -0.589844 25.863281 -1.648438 C 27.925781 -2.472656 30.339844 -4.300781 31.164062 -5.300781 C 32.933594 -7.421875 33.757812 -10.015625 33.757812 -10.015625 C 34.226562 -11.488281 34.464844 -14.726562 34.464844 -17.261719 Z M 19.207031 -14.964844 C 18.792969 -12.960938 18.441406 -12.371094 17.320312 -12.371094 C 16.320312 -12.371094 16.320312 -13.550781 16.320312 -15.023438 L 16.320312 -22.269531 C 16.320312 -24.152344 16.613281 -24.507812 17.320312 -24.507812 C 18.027344 -24.507812 18.910156 -23.976562 19.207031 -21.265625 C 19.382812 -19.792969 19.441406 -16.199219 19.207031 -14.964844 Z M 19.207031 -14.964844 "/></g></g></g><g fill="#2b2b2b" fill-opacity="1"><g transform="translate(150.176634, 180.515614)"><g><path d="M 31.339844 -11.253906 C 30.988281 -12.019531 30.753906 -12.667969 31.339844 -13.195312 C 31.339844 -13.195312 31.339844 -13.253906 31.398438 -13.253906 C 31.460938 -13.375 33.050781 -15.613281 33.640625 -17.027344 C 34.226562 -18.441406 34.640625 -21.621094 34.640625 -23.800781 C 34.640625 -26.921875 34.582031 -29.21875 33.519531 -31.519531 C 33.167969 -32.34375 32.285156 -34.050781 30.871094 -35.230469 C 29.691406 -36.289062 28.21875 -37.054688 26.863281 -37.054688 L 1.886719 -37.054688 C 1.707031 -37.054688 1.707031 -36.878906 1.707031 -36.703125 C 1.828125 -32.933594 1.707031 -28.925781 1.648438 -25.15625 L 1.648438 -17.851562 C 1.707031 -16.96875 1.648438 -6.480469 1.648438 -5.480469 L 1.648438 -0.53125 C 1.648438 -0.234375 1.765625 0 2.003906 0 L 15.789062 0 C 15.964844 0 16.140625 -0.234375 16.140625 -0.53125 C 16.023438 -3.0625 16.082031 -5.773438 16.261719 -8.246094 C 16.261719 -8.835938 17.144531 -9.074219 17.4375 -8.71875 C 18.261719 -7.777344 20.5 -1.53125 20.796875 -0.292969 C 20.855469 -0.117188 20.972656 0 21.148438 0 L 34.285156 0 C 34.523438 0 34.699219 -0.292969 34.640625 -0.648438 C 34.40625 -1.707031 32.753906 -8.308594 31.339844 -11.253906 Z M 18.734375 -21.386719 C 18.617188 -19.558594 17.734375 -18.851562 16.90625 -18.910156 C 16.023438 -18.96875 16.023438 -19.851562 15.964844 -20.382812 C 15.90625 -21.796875 15.964844 -24.214844 15.964844 -25.507812 C 15.964844 -26.214844 15.964844 -26.921875 15.964844 -27.394531 C 16.023438 -27.746094 16.4375 -28.101562 16.90625 -28.101562 C 17.671875 -28.101562 18.441406 -27.6875 18.675781 -25.625 C 18.792969 -24.332031 18.851562 -23.035156 18.734375 -21.386719 Z M 18.734375 -21.386719 "/></g></g></g><g fill="#2b2b2b" fill-opacity="1"><g transform="translate(184.874454, 180.515614)"><g><path d="M 34.285156 -9.71875 C 34.285156 -10.015625 34.050781 -10.25 33.816406 -10.25 C 30.753906 -10.132812 20.972656 -9.601562 19.441406 -9.957031 C 18.203125 -10.25 16.789062 -11.3125 17.554688 -12.785156 C 18.261719 -14.140625 20.558594 -13.902344 21.796875 -13.960938 C 23.152344 -14.082031 31.046875 -13.726562 33.816406 -13.726562 C 34.050781 -13.726562 34.285156 -13.960938 34.285156 -14.199219 C 34.285156 -14.964844 34.285156 -15.492188 34.285156 -16.320312 L 34.285156 -21.207031 C 34.285156 -21.503906 34.050781 -21.738281 33.816406 -21.738281 C 32.992188 -21.738281 19.207031 -21.5625 18.320312 -21.855469 C 17.554688 -22.09375 16.847656 -22.738281 16.90625 -23.625 C 17.027344 -25.039062 18.558594 -25.449219 19.734375 -25.566406 C 22.738281 -26.039062 33.816406 -25.746094 33.816406 -25.746094 C 34.109375 -25.746094 34.285156 -25.980469 34.285156 -26.273438 C 34.285156 -26.273438 33.992188 -28.691406 34.050781 -29.867188 C 34.050781 -31.046875 34.167969 -34.582031 34.226562 -35.171875 C 34.285156 -35.820312 34.347656 -36.585938 34.347656 -36.644531 C 34.285156 -36.878906 34.050781 -36.996094 33.875 -36.996094 L 2.472656 -36.996094 C 2.003906 -36.996094 1.648438 -36.585938 1.707031 -36.113281 C 2.535156 -30.28125 1.828125 -24.390625 1.765625 -18.558594 C 1.707031 -12.605469 1.707031 -6.714844 1.472656 -0.765625 C 1.414062 -0.351562 1.765625 0 2.238281 0 L 34.050781 0 C 34.347656 0 34.523438 -0.175781 34.523438 -0.472656 C 34.523438 -0.472656 34.285156 -5.359375 34.285156 -6.480469 C 34.285156 -7.421875 34.285156 -8.71875 34.285156 -9.71875 Z M 34.285156 -9.71875 "/></g></g></g><g fill="#2b2b2b" fill-opacity="1"><g transform="translate(219.572274, 180.515614)"><g><path d="M 27.335938 -36.996094 C 27.101562 -36.996094 26.921875 -36.820312 26.921875 -36.585938 C 26.6875 -34.933594 26.628906 -33.226562 26.394531 -31.519531 C 26.15625 -30.046875 26.332031 -29.457031 25.625 -26.980469 C 25.273438 -25.863281 23.800781 -25.980469 23.625 -26.804688 C 22.917969 -29.988281 22.800781 -33.285156 22.679688 -36.527344 C 22.679688 -36.820312 22.503906 -36.996094 22.269531 -36.996094 L 18.203125 -36.996094 C 17.96875 -36.996094 17.792969 -36.820312 17.792969 -36.585938 C 17.496094 -33.402344 17.203125 -30.222656 16.554688 -27.101562 C 16.320312 -26.097656 14.90625 -25.980469 14.785156 -27.101562 C 14.375 -30.222656 13.84375 -33.402344 13.667969 -36.527344 C 13.667969 -36.820312 13.492188 -36.996094 13.253906 -36.996094 L 1.589844 -36.996094 C 1.355469 -36.996094 1.179688 -36.761719 1.179688 -36.527344 L 1.179688 -36.40625 C 1.179688 -36.347656 1.179688 -36.289062 1.179688 -36.289062 C 1.828125 -32.402344 2.003906 -28.394531 2.355469 -24.449219 C 2.652344 -21.089844 3.0625 -17.792969 3.300781 -14.433594 C 3.59375 -11.429688 3.886719 -8.425781 4.242188 -5.421875 C 4.476562 -3.710938 4.714844 -2.003906 5.066406 -0.351562 C 5.125 -0.117188 5.300781 0.0585938 5.480469 0.0585938 L 17.910156 0.0585938 C 18.085938 0.0585938 18.261719 -0.117188 18.320312 -0.414062 C 18.5 -1.886719 18.5 -1.589844 18.734375 -3.121094 C 19.027344 -5.242188 18.96875 -7.539062 19.734375 -9.542969 C 20.089844 -10.605469 21.445312 -9.957031 21.445312 -8.953125 C 21.503906 -5.421875 21.738281 -3.710938 22.328125 -0.351562 C 22.386719 -0.117188 22.5625 0.0585938 22.738281 0.0585938 L 34.816406 0.0585938 C 35.054688 0.0585938 35.230469 -0.175781 35.230469 -0.414062 C 35.40625 -1.589844 35.464844 -2.710938 35.640625 -3.886719 C 35.820312 -5.597656 35.820312 -8.367188 36.054688 -10.015625 C 36.289062 -11.664062 36.46875 -13.960938 37.171875 -20.796875 C 37.761719 -26.746094 37.820312 -30.515625 38.882812 -36.40625 C 38.941406 -36.703125 38.765625 -36.996094 38.46875 -36.996094 Z M 27.335938 -36.996094 "/></g></g></g><g fill="#55996f" fill-opacity="1"><g transform="translate(258.221996, 180.515614)"><g/></g></g><g fill="#2b2b2b" fill-opacity="1"><g transform="translate(258.221996, 180.515614)"><g/></g></g><g fill="#2b2b2b" fill-opacity="1"><g transform="translate(45.758101, 198.717174)"><g><path d="M 3.945312 -9.457031 L 0.863281 -9.457031 L 0.863281 0 L 4.210938 0 C 7.425781 0 8.832031 -1.964844 8.832031 -4.796875 C 8.832031 -7.625 7.492188 -9.457031 3.945312 -9.457031 Z M 2.828125 -1.660156 L 2.828125 -7.863281 L 3.757812 -7.863281 C 6.175781 -7.863281 6.867188 -6.773438 6.867188 -4.730469 C 6.867188 -2.667969 6.109375 -1.660156 4.023438 -1.660156 Z M 2.828125 -1.660156 "/></g></g></g><g fill="#2b2b2b" fill-opacity="1"><g transform="translate(54.454506, 198.717174)"><g><path d="M 9.21875 0 L 5.949219 -9.457031 L 3.679688 -9.457031 L 0.332031 0 L 2.417969 0 L 3.054688 -1.964844 L 6.480469 -1.964844 L 7.121094 0 Z M 3.972656 -4.753906 L 4.78125 -7.476562 L 5.578125 -4.753906 L 5.964844 -3.585938 L 3.585938 -3.585938 Z M 3.972656 -4.753906 "/></g></g></g><g fill="#2b2b2b" fill-opacity="1"><g transform="translate(63.443009, 198.717174)"><g><path d="M 0.265625 -9.457031 L 0.265625 -7.703125 L 3.109375 -7.703125 L 3.109375 0 L 5.074219 0 L 5.074219 -7.703125 L 7.902344 -7.703125 L 7.902344 -9.457031 Z M 0.265625 -9.457031 "/></g></g></g><g fill="#2b2b2b" fill-opacity="1"><g transform="translate(71.050667, 198.717174)"><g><path d="M 9.21875 0 L 5.949219 -9.457031 L 3.679688 -9.457031 L 0.332031 0 L 2.417969 0 L 3.054688 -1.964844 L 6.480469 -1.964844 L 7.121094 0 Z M 3.972656 -4.753906 L 4.78125 -7.476562 L 5.578125 -4.753906 L 5.964844 -3.585938 L 3.585938 -3.585938 Z M 3.972656 -4.753906 "/></g></g></g><g fill="#2b2b2b" fill-opacity="1"><g transform="translate(80.039171, 198.717174)"><g/></g></g><g fill="#2b2b2b" fill-opacity="1"><g transform="translate(82.800624, 198.717174)"><g><path d="M 9.21875 0 L 5.949219 -9.457031 L 3.679688 -9.457031 L 0.332031 0 L 2.417969 0 L 3.054688 -1.964844 L 6.480469 -1.964844 L 7.121094 0 Z M 3.972656 -4.753906 L 4.78125 -7.476562 L 5.578125 -4.753906 L 5.964844 -3.585938 L 3.585938 -3.585938 Z M 3.972656 -4.753906 "/></g></g></g><g fill="#2b2b2b" fill-opacity="1"><g transform="translate(91.789128, 198.717174)"><g><path d="M 6.535156 -5.3125 C 6.535156 -4.648438 6.546875 -3.972656 6.5625 -3.308594 C 6.257812 -3.839844 5.9375 -4.355469 5.605469 -4.886719 L 2.789062 -9.457031 L 0.863281 -9.457031 L 0.863281 0 L 2.828125 0 L 2.828125 -4.144531 C 2.828125 -4.796875 2.828125 -5.472656 2.816406 -6.136719 C 3.148438 -5.578125 3.480469 -5.019531 3.824219 -4.464844 L 6.574219 0 L 8.5 0 L 8.5 -9.457031 L 6.535156 -9.457031 Z M 6.535156 -5.3125 "/></g></g></g><g fill="#2b2b2b" fill-opacity="1"><g transform="translate(100.591743, 198.717174)"><g><path d="M 9.21875 0 L 5.949219 -9.457031 L 3.679688 -9.457031 L 0.332031 0 L 2.417969 0 L 3.054688 -1.964844 L 6.480469 -1.964844 L 7.121094 0 Z M 3.972656 -4.753906 L 4.78125 -7.476562 L 5.578125 -4.753906 L 5.964844 -3.585938 L 3.585938 -3.585938 Z M 3.972656 -4.753906 "/></g></g></g><g fill="#2b2b2b" fill-opacity="1"><g transform="translate(109.580247, 198.717174)"><g><path d="M 2.828125 -9.457031 L 0.863281 -9.457031 L 0.863281 0 L 7.4375 0 L 7.4375 -1.753906 L 2.828125 -1.753906 Z M 2.828125 -9.457031 "/></g></g></g><g fill="#2b2b2b" fill-opacity="1"><g transform="translate(116.65682, 198.717174)"><g><path d="M 4.902344 -6.523438 L 4.355469 -5.207031 L 3.839844 -6.523438 L 2.402344 -9.457031 L 0.238281 -9.457031 L 3.375 -3.664062 L 3.375 0 L 5.339844 0 L 5.339844 -3.664062 L 8.472656 -9.457031 L 6.363281 -9.457031 Z M 4.902344 -6.523438 "/></g></g></g><g fill="#2b2b2b" fill-opacity="1"><g transform="translate(124.808853, 198.717174)"><g><path d="M 4.53125 0.304688 C 6.867188 0.304688 8.289062 -0.835938 8.289062 -2.667969 C 8.289062 -4.25 7.1875 -5.035156 5.710938 -5.394531 L 3.824219 -5.859375 C 3.09375 -6.042969 2.722656 -6.402344 2.722656 -6.921875 C 2.722656 -7.558594 3.28125 -8.0625 4.289062 -8.0625 C 5.328125 -8.0625 6.097656 -7.519531 6.214844 -6.5625 L 8.128906 -6.5625 C 8.007812 -8.421875 6.5625 -9.667969 4.277344 -9.667969 C 1.847656 -9.667969 0.742188 -8.222656 0.742188 -6.707031 C 0.742188 -5.378906 1.59375 -4.449219 3.066406 -4.078125 L 4.808594 -3.640625 C 5.710938 -3.414062 6.257812 -3.160156 6.257812 -2.484375 C 6.257812 -1.738281 5.59375 -1.300781 4.515625 -1.300781 C 3.265625 -1.300781 2.496094 -1.886719 2.445312 -2.933594 L 0.519531 -2.933594 C 0.570312 -0.890625 2.125 0.304688 4.53125 0.304688 Z M 4.53125 0.304688 "/></g></g></g><g fill="#2b2b2b" fill-opacity="1"><g transform="translate(133.053822, 198.717174)"><g><path d="M 0.265625 -9.457031 L 0.265625 -7.703125 L 3.109375 -7.703125 L 3.109375 0 L 5.074219 0 L 5.074219 -7.703125 L 7.902344 -7.703125 L 7.902344 -9.457031 Z M 0.265625 -9.457031 "/></g></g></g><g fill="#2b2b2b" fill-opacity="1"><g transform="translate(45.758101, 214.855827)"><g><path d="M 2.828125 -4.039062 L 7.253906 -4.039062 L 7.253906 -5.792969 L 2.828125 -5.792969 L 2.828125 -7.703125 L 7.742188 -7.703125 L 7.742188 -9.457031 L 0.863281 -9.457031 L 0.863281 0 L 7.875 0 L 7.875 -1.753906 L 2.828125 -1.753906 Z M 2.828125 -4.039062 "/></g></g></g><g fill="#2b2b2b" fill-opacity="1"><g transform="translate(53.604759, 214.855827)"><g><path d="M 4.53125 0.304688 C 6.867188 0.304688 8.289062 -0.835938 8.289062 -2.667969 C 8.289062 -4.25 7.1875 -5.035156 5.710938 -5.394531 L 3.824219 -5.859375 C 3.09375 -6.042969 2.722656 -6.402344 2.722656 -6.921875 C 2.722656 -7.558594 3.28125 -8.0625 4.289062 -8.0625 C 5.328125 -8.0625 6.097656 -7.519531 6.214844 -6.5625 L 8.128906 -6.5625 C 8.007812 -8.421875 6.5625 -9.667969 4.277344 -9.667969 C 1.847656 -9.667969 0.742188 -8.222656 0.742188 -6.707031 C 0.742188 -5.378906 1.59375 -4.449219 3.066406 -4.078125 L 4.808594 -3.640625 C 5.710938 -3.414062 6.257812 -3.160156 6.257812 -2.484375 C 6.257812 -1.738281 5.59375 -1.300781 4.515625 -1.300781 C 3.265625 -1.300781 2.496094 -1.886719 2.445312 -2.933594 L 0.519531 -2.933594 C 0.570312 -0.890625 2.125 0.304688 4.53125 0.304688 Z M 4.53125 0.304688 "/></g></g></g><g fill="#2b2b2b" fill-opacity="1"><g transform="translate(61.849728, 214.855827)"><g><path d="M 0.265625 -9.457031 L 0.265625 -7.703125 L 3.109375 -7.703125 L 3.109375 0 L 5.074219 0 L 5.074219 -7.703125 L 7.902344 -7.703125 L 7.902344 -9.457031 Z M 0.265625 -9.457031 "/></g></g></g><g fill="#2b2b2b" fill-opacity="1"><g transform="translate(69.457386, 214.855827)"><g><path d="M 2.988281 0 L 2.988281 -1.992188 L 0.796875 -1.992188 L 0.796875 0 Z M 2.988281 0 "/></g></g></g><g fill="#2b2b2b" fill-opacity="1"><g transform="translate(72.683539, 214.855827)"><g/></g></g><g fill="#2b2b2b" fill-opacity="1"><g transform="translate(75.444992, 214.855827)"><g><path d="M 3.425781 -1.648438 C 3.519531 -1.992188 3.796875 -2.203125 4.554688 -2.710938 L 5.84375 -3.574219 C 7.078125 -4.398438 7.785156 -5.417969 7.785156 -6.695312 C 7.785156 -8.472656 6.414062 -9.667969 4.355469 -9.667969 C 2.257812 -9.667969 0.996094 -8.421875 0.996094 -6.308594 L 0.996094 -6.136719 L 2.894531 -6.136719 L 2.894531 -6.402344 C 2.894531 -7.519531 3.453125 -8.035156 4.316406 -8.035156 C 5.140625 -8.035156 5.726562 -7.542969 5.726562 -6.601562 C 5.726562 -5.859375 5.351562 -5.394531 4.6875 -4.902344 L 2.882812 -3.574219 C 1.582031 -2.617188 0.890625 -1.648438 0.890625 0 L 7.875 0 L 7.875 -1.648438 Z M 3.425781 -1.648438 "/></g></g></g><g fill="#2b2b2b" fill-opacity="1"><g transform="translate(83.650137, 214.855827)"><g><path d="M 4.382812 0.210938 C 6.867188 0.210938 8.25 -1.648438 8.25 -4.78125 C 8.25 -7.851562 6.867188 -9.667969 4.382812 -9.667969 C 1.898438 -9.667969 0.519531 -7.851562 0.519531 -4.78125 C 0.519531 -1.648438 1.898438 0.210938 4.382812 0.210938 Z M 4.382812 -1.449219 C 3.132812 -1.449219 2.511719 -2.511719 2.511719 -4.742188 C 2.511719 -6.960938 3.132812 -8.007812 4.382812 -8.007812 C 5.632812 -8.007812 6.257812 -6.960938 6.257812 -4.742188 C 6.257812 -2.511719 5.632812 -1.449219 4.382812 -1.449219 Z M 4.382812 -1.449219 "/></g></g></g><g fill="#2b2b2b" fill-opacity="1"><g transform="translate(91.855281, 214.855827)"><g><path d="M 4.382812 0.210938 C 6.867188 0.210938 8.25 -1.648438 8.25 -4.78125 C 8.25 -7.851562 6.867188 -9.667969 4.382812 -9.667969 C 1.898438 -9.667969 0.519531 -7.851562 0.519531 -4.78125 C 0.519531 -1.648438 1.898438 0.210938 4.382812 0.210938 Z M 4.382812 -1.449219 C 3.132812 -1.449219 2.511719 -2.511719 2.511719 -4.742188 C 2.511719 -6.960938 3.132812 -8.007812 4.382812 -8.007812 C 5.632812 -8.007812 6.257812 -6.960938 6.257812 -4.742188 C 6.257812 -2.511719 5.632812 -1.449219 4.382812 -1.449219 Z M 4.382812 -1.449219 "/></g></g></g><g fill="#2b2b2b" fill-opacity="1"><g transform="translate(100.060422, 214.855827)"><g><path d="M 4.78125 0 L 4.78125 -9.457031 L 3.042969 -9.457031 L 3.027344 -9.335938 C 2.976562 -8.871094 2.816406 -8.488281 2.535156 -8.222656 C 2.21875 -7.917969 1.753906 -7.757812 1.128906 -7.757812 L 0.4375 -7.757812 L 0.4375 -6.441406 L 2.816406 -6.441406 L 2.816406 0 Z M 4.78125 0 "/></g></g></g><g fill="#55996f" fill-opacity="1"><g transform="translate(231.648798, 219.429535)"><g><path d="M 34.582031 -5.890625 C 34.523438 -7.128906 34.523438 -8.367188 34.582031 -9.601562 C 34.640625 -10.425781 34.699219 -13.136719 34.699219 -13.375 C 34.699219 -13.667969 34.523438 -13.667969 34.464844 -13.667969 C 32.402344 -13.726562 26.6875 -13.3125 25.097656 -13.433594 C 23.917969 -13.433594 20.03125 -13.253906 19.5 -13.960938 C 18.96875 -14.726562 19.148438 -15.90625 19.085938 -16.90625 C 19.085938 -17.851562 19.265625 -22.738281 19.265625 -24.273438 C 19.207031 -25.921875 19.207031 -27.511719 19.148438 -29.160156 C 19.085938 -31.636719 18.910156 -34.109375 18.910156 -36.585938 C 18.910156 -36.820312 18.734375 -36.996094 18.558594 -36.996094 L 2.003906 -36.996094 C 1.828125 -36.996094 1.707031 -36.878906 1.707031 -36.644531 C 1.589844 -35.523438 1.648438 -34.40625 1.707031 -33.285156 C 1.765625 -31.929688 1.765625 -30.574219 1.707031 -29.21875 C 1.648438 -26.15625 1.648438 -23.09375 1.648438 -20.03125 L 1.648438 -1.589844 C 1.648438 -1.53125 1.648438 -1.472656 1.648438 -1.414062 C 1.648438 -1.355469 1.648438 -1.355469 1.648438 -1.296875 L 1.648438 -0.414062 C 1.648438 -0.175781 1.765625 0 1.945312 0 L 34.40625 0 C 34.582031 0 34.699219 -0.175781 34.699219 -0.414062 C 34.699219 -0.414062 34.582031 -4.890625 34.582031 -5.890625 Z M 34.582031 -5.890625 "/></g></g></g><g fill="#55996f" fill-opacity="1"><g transform="translate(266.641195, 219.429535)"><g><path d="M 1.707031 -36.996094 C 1.648438 -36.9375 1.589844 -36.878906 1.53125 -36.761719 C 1.53125 -34.464844 1.707031 -20.621094 1.765625 -16.023438 C 1.828125 -12.902344 2.003906 -2.296875 1.589844 -0.234375 C 1.589844 -0.117188 1.707031 0 1.828125 0 L 18.5 0 C 18.851562 0 19.148438 -0.292969 19.148438 -0.648438 C 18.910156 -3.417969 18.734375 -6.125 18.675781 -8.894531 C 18.617188 -12.136719 18.261719 -30.574219 18.675781 -36.347656 C 18.675781 -36.703125 18.378906 -36.996094 18.027344 -36.996094 Z M 1.707031 -36.996094 "/></g></g></g><g fill="#55996f" fill-opacity="1"><g transform="translate(285.963518, 219.429535)"><g><path d="M 37.46875 -17.734375 C 37.527344 -24.09375 37.820312 -30.398438 37.820312 -36.761719 C 37.820312 -36.878906 37.761719 -36.996094 37.644531 -36.996094 L 21.796875 -36.996094 C 21.738281 -36.996094 21.621094 -36.9375 21.621094 -36.820312 C 21.148438 -34.109375 20.796875 -28.808594 20.738281 -27.808594 C 20.679688 -26.804688 20.5 -26.863281 20.148438 -26.746094 C 19.792969 -26.628906 19.265625 -26.804688 19.207031 -27.277344 C 18.558594 -30.164062 18.558594 -33.582031 18.203125 -36.820312 C 18.144531 -36.9375 18.085938 -37.054688 17.96875 -37.054688 L 1.886719 -37.054688 C 1.765625 -37.054688 1.648438 -36.878906 1.707031 -36.761719 C 1.707031 -36.703125 1.707031 -36.644531 1.707031 -36.585938 C 1.707031 -34.699219 1.707031 -32.8125 1.765625 -30.871094 C 1.765625 -29.101562 1.945312 -10.425781 1.53125 -0.648438 L 1.53125 -0.234375 C 1.53125 -0.117188 1.589844 0 1.707031 0 L 13.195312 0 C 13.3125 0 13.433594 -0.117188 13.433594 -0.234375 C 13.375 -3.238281 13.785156 -7.421875 13.726562 -10.367188 C 13.726562 -11.429688 14.667969 -11.371094 14.964844 -10.308594 C 15.671875 -7.011719 15.671875 -3.417969 16.320312 -0.175781 C 16.378906 -0.0585938 16.4375 0 16.554688 0 L 22.09375 0 C 22.152344 0 22.269531 -0.0585938 22.269531 -0.175781 C 22.976562 -3.652344 23.328125 -6.65625 24.035156 -10.605469 C 24.152344 -11.429688 25.097656 -11.015625 25.097656 -10.191406 C 25.097656 -6.597656 25.332031 -3.59375 25.273438 -0.234375 C 25.273438 -0.117188 25.332031 0 25.449219 0 L 37.703125 0 C 37.820312 0 37.941406 -0.117188 37.941406 -0.234375 C 37.941406 -0.234375 37.46875 -14.492188 37.46875 -17.734375 Z M 37.46875 -17.734375 "/></g></g></g><g fill="#2b2b2b" fill-opacity="1"><g transform="translate(231.648798, 219.429535)"><g><path d="M 34.582031 -5.890625 C 34.523438 -7.128906 34.523438 -8.367188 34.582031 -9.601562 C 34.640625 -10.425781 34.699219 -13.136719 34.699219 -13.375 C 34.699219 -13.667969 34.523438 -13.667969 34.464844 -13.667969 C 32.402344 -13.726562 26.6875 -13.3125 25.097656 -13.433594 C 23.917969 -13.433594 20.03125 -13.253906 19.5 -13.960938 C 18.96875 -14.726562 19.148438 -15.90625 19.085938 -16.90625 C 19.085938 -17.851562 19.265625 -22.738281 19.265625 -24.273438 C 19.207031 -25.921875 19.207031 -27.511719 19.148438 -29.160156 C 19.085938 -31.636719 18.910156 -34.109375 18.910156 -36.585938 C 18.910156 -36.820312 18.734375 -36.996094 18.558594 -36.996094 L 2.003906 -36.996094 C 1.828125 -36.996094 1.707031 -36.878906 1.707031 -36.644531 C 1.589844 -35.523438 1.648438 -34.40625 1.707031 -33.285156 C 1.765625 -31.929688 1.765625 -30.574219 1.707031 -29.21875 C 1.648438 -26.15625 1.648438 -23.09375 1.648438 -20.03125 L 1.648438 -1.589844 C 1.648438 -1.53125 1.648438 -1.472656 1.648438 -1.414062 C 1.648438 -1.355469 1.648438 -1.355469 1.648438 -1.296875 L 1.648438 -0.414062 C 1.648438 -0.175781 1.765625 0 1.945312 0 L 34.40625 0 C 34.582031 0 34.699219 -0.175781 34.699219 -0.414062 C 34.699219 -0.414062 34.582031 -4.890625 34.582031 -5.890625 Z M 34.582031 -5.890625 "/></g></g></g><g fill="#2b2b2b" fill-opacity="1"><g transform="translate(266.641195, 219.429535)"><g><path d="M 1.707031 -36.996094 C 1.648438 -36.9375 1.589844 -36.878906 1.53125 -36.761719 C 1.53125 -34.464844 1.707031 -20.621094 1.765625 -16.023438 C 1.828125 -12.902344 2.003906 -2.296875 1.589844 -0.234375 C 1.589844 -0.117188 1.707031 0 1.828125 0 L 18.5 0 C 18.851562 0 19.148438 -0.292969 19.148438 -0.648438 C 18.910156 -3.417969 18.734375 -6.125 18.675781 -8.894531 C 18.617188 -12.136719 18.261719 -30.574219 18.675781 -36.347656 C 18.675781 -36.703125 18.378906 -36.996094 18.027344 -36.996094 Z M 1.707031 -36.996094 "/></g></g></g><g fill="#2b2b2b" fill-opacity="1"><g transform="translate(285.963518, 219.429535)"><g><path d="M 37.46875 -17.734375 C 37.527344 -24.09375 37.820312 -30.398438 37.820312 -36.761719 C 37.820312 -36.878906 37.761719 -36.996094 37.644531 -36.996094 L 21.796875 -36.996094 C 21.738281 -36.996094 21.621094 -36.9375 21.621094 -36.820312 C 21.148438 -34.109375 20.796875 -28.808594 20.738281 -27.808594 C 20.679688 -26.804688 20.5 -26.863281 20.148438 -26.746094 C 19.792969 -26.628906 19.265625 -26.804688 19.207031 -27.277344 C 18.558594 -30.164062 18.558594 -33.582031 18.203125 -36.820312 C 18.144531 -36.9375 18.085938 -37.054688 17.96875 -37.054688 L 1.886719 -37.054688 C 1.765625 -37.054688 1.648438 -36.878906 1.707031 -36.761719 C 1.707031 -36.703125 1.707031 -36.644531 1.707031 -36.585938 C 1.707031 -34.699219 1.707031 -32.8125 1.765625 -30.871094 C 1.765625 -29.101562 1.945312 -10.425781 1.53125 -0.648438 L 1.53125 -0.234375 C 1.53125 -0.117188 1.589844 0 1.707031 0 L 13.195312 0 C 13.3125 0 13.433594 -0.117188 13.433594 -0.234375 C 13.375 -3.238281 13.785156 -7.421875 13.726562 -10.367188 C 13.726562 -11.429688 14.667969 -11.371094 14.964844 -10.308594 C 15.671875 -7.011719 15.671875 -3.417969 16.320312 -0.175781 C 16.378906 -0.0585938 16.4375 0 16.554688 0 L 22.09375 0 C 22.152344 0 22.269531 -0.0585938 22.269531 -0.175781 C 22.976562 -3.652344 23.328125 -6.65625 24.035156 -10.605469 C 24.152344 -11.429688 25.097656 -11.015625 25.097656 -10.191406 C 25.097656 -6.597656 25.332031 -3.59375 25.273438 -0.234375 C 25.273438 -0.117188 25.332031 0 25.449219 0 L 37.703125 0 C 37.820312 0 37.941406 -0.117188 37.941406 -0.234375 C 37.941406 -0.234375 37.46875 -14.492188 37.46875 -17.734375 Z M 37.46875 -17.734375 "/></g></g></g></svg>